<svg xmlns="http://www.w3.org/2000/svg" viewBox="0 0 20 20">
	<defs><style>path,rect,circle {display:none;fill:#999} :target {display:inline} .filled {fill:#ccc} .focused {fill:#f79e18} </style></defs>
	
	<rect id="square" x="0" width="20" height="20" rx="1"/>
	<circle id="circle" cx="10" cy="10" r="10"/>
	
	<path id="input-expand-up" d="M0.29289,14.70711c-0.39052,-0.39052 -0.39052,-1.02369 0,-1.41421c0,0 9,-9 9,-9c0.39052,-0.39052 1.02369,-0.39052 1.41421,0l9,9c0.39052,0.39052 0.39052,1.02369 0,1.41421c-0.39052,0.39052 -1.02369,0.39052 -1.41421,0l-8.29289,-8.29289l-8.29289,8.29289c-0.39052,0.39052 -1.02369,0.39052 -1.41421,0z"/>
	<path id="input-expand-up-filled" class="filled" d="M0.29289,14.70711c-0.39052,-0.39052 -0.39052,-1.02369 0,-1.41421c0,0 9,-9 9,-9c0.39052,-0.39052 1.02369,-0.39052 1.41421,0l9,9c0.39052,0.39052 0.39052,1.02369 0,1.41421c-0.39052,0.39052 -1.02369,0.39052 -1.41421,0l-8.29289,-8.29289l-8.29289,8.29289c-0.39052,0.39052 -1.02369,0.39052 -1.41421,0z"/>
	<path id="input-expand-up-focused" class="focused" d="M0.29289,14.70711c-0.39052,-0.39052 -0.39052,-1.02369 0,-1.41421c0,0 9,-9 9,-9c0.39052,-0.39052 1.02369,-0.39052 1.41421,0l9,9c0.39052,0.39052 0.39052,1.02369 0,1.41421c-0.39052,0.39052 -1.02369,0.39052 -1.41421,0l-8.29289,-8.29289l-8.29289,8.29289c-0.39052,0.39052 -1.02369,0.39052 -1.41421,0z"/>
	
	<path id="input-expand-left" d="M14.70711,0.29289c-0.39052,-0.39052 -1.02369,-0.39052 -1.41421,0l-9,9c-0.39052,0.39052 -0.39052,1.02369 0,1.41421l9,9c0.39052,0.39052 1.02369,0.39052 1.41421,0c0.39052,-0.39052 0.39052,-1.02369 0,-1.41421l-8.29289,-8.29289l8.29289,-8.29289c0.39052,-0.39052 0.39052,-1.02369 0,-1.41421z"/>
	<path id="input-expand-left-filled" class="filled" d="M14.70711,0.29289c-0.39052,-0.39052 -1.02369,-0.39052 -1.41421,0l-9,9c-0.39052,0.39052 -0.39052,1.02369 0,1.41421l9,9c0.39052,0.39052 1.02369,0.39052 1.41421,0c0.39052,-0.39052 0.39052,-1.02369 0,-1.41421l-8.29289,-8.29289l8.29289,-8.29289c0.39052,-0.39052 0.39052,-1.02369 0,-1.41421z"/>
	<path id="input-expand-left-focused" class="focused" d="M14.70711,0.29289c-0.39052,-0.39052 -1.02369,-0.39052 -1.41421,0l-9,9c-0.39052,0.39052 -0.39052,1.02369 0,1.41421l9,9c0.39052,0.39052 1.02369,0.39052 1.41421,0c0.39052,-0.39052 0.39052,-1.02369 0,-1.41421l-8.29289,-8.29289l8.29289,-8.29289c0.39052,-0.39052 0.39052,-1.02369 0,-1.41421z"/>
	
	<path id="input-expand-right" d="M5.29289,0.29289c0.39052,-0.39052 1.02369,-0.39052 1.41421,0c0,0 9,9 9,9c0.39052,0.39052 0.39052,1.02369 0,1.41421l-9,9c-0.39052,0.39052 -1.02369,0.39052 -1.41421,0c-0.39052,-0.39052 -0.39052,-1.02369 0,-1.41421l8.29289,-8.29289l-8.29289,-8.29289c-0.39052,-0.39052 -0.39052,-1.02369 0,-1.41421z"/>
	<path id="input-expand-right-filled" class="filled" d="M5.29289,0.29289c0.39052,-0.39052 1.02369,-0.39052 1.41421,0c0,0 9,9 9,9c0.39052,0.39052 0.39052,1.02369 0,1.41421l-9,9c-0.39052,0.39052 -1.02369,0.39052 -1.41421,0c-0.39052,-0.39052 -0.39052,-1.02369 0,-1.41421l8.29289,-8.29289l-8.29289,-8.29289c-0.39052,-0.39052 -0.39052,-1.02369 0,-1.41421z"/>
	<path id="input-expand-right-focused" class="focused" d="M5.29289,0.29289c0.39052,-0.39052 1.02369,-0.39052 1.41421,0c0,0 9,9 9,9c0.39052,0.39052 0.39052,1.02369 0,1.41421l-9,9c-0.39052,0.39052 -1.02369,0.39052 -1.41421,0c-0.39052,-0.39052 -0.39052,-1.02369 0,-1.41421l8.29289,-8.29289l-8.29289,-8.29289c-0.39052,-0.39052 -0.39052,-1.02369 0,-1.41421z"/>
	
	<path id="input-expand-down" d="M0.29289,5.29289c-0.39052,0.39052 -0.39052,1.02369 0,1.41421l9,9c0.39052,0.39052 1.02369,0.39052 1.41421,0l9,-9c0.39052,-0.39052 0.39052,-1.02369 0,-1.41421c-0.39052,-0.39052 -1.02369,-0.39052 -1.41421,0l-8.29289,8.29289l-8.29289,-8.29289c-0.39052,-0.39052 -1.02369,-0.39052 -1.41421,0z"/>
	<path id="input-expand-down-filled" class="filled" d="M0.29289,5.29289c-0.39052,0.39052 -0.39052,1.02369 0,1.41421l9,9c0.39052,0.39052 1.02369,0.39052 1.41421,0l9,-9c0.39052,-0.39052 0.39052,-1.02369 0,-1.41421c-0.39052,-0.39052 -1.02369,-0.39052 -1.41421,0l-8.29289,8.29289l-8.29289,-8.29289c-0.39052,-0.39052 -1.02369,-0.39052 -1.41421,0z"/>
	<path id="input-expand-down-focused" class="focused" d="M0.29289,5.29289c-0.39052,0.39052 -0.39052,1.02369 0,1.41421l9,9c0.39052,0.39052 1.02369,0.39052 1.41421,0l9,-9c0.39052,-0.39052 0.39052,-1.02369 0,-1.41421c-0.39052,-0.39052 -1.02369,-0.39052 -1.41421,0l-8.29289,8.29289l-8.29289,-8.29289c-0.39052,-0.39052 -1.02369,-0.39052 -1.41421,0z"/>
	
	<path id="input-add" d="M10,0c0.55228,0 1,0.44772 1,1l0,8h8c0.55228,0 1,0.44772 1,1c0,0.55228 -0.44772,1 -1,1l-8,0v8c0,0.55228 -0.44772,1 -1,1c-0.55228,0 -1,-0.44772 -1,-1l0,-8h-8c-0.55228,0 -1,-0.44772 -1,-1c0,-0.55228 0.44772,-1 1,-1l8,0v-8c0,-0.55228 0.44772,-1 1,-1z"/>
	<path id="input-add-filled" class="filled" d="M10,0c0.55228,0 1,0.44772 1,1l0,8h8c0.55228,0 1,0.44772 1,1c0,0.55228 -0.44772,1 -1,1l-8,0v8c0,0.55228 -0.44772,1 -1,1c-0.55228,0 -1,-0.44772 -1,-1l0,-8h-8c-0.55228,0 -1,-0.44772 -1,-1c0,-0.55228 0.44772,-1 1,-1l8,0v-8c0,-0.55228 0.44772,-1 1,-1z"/>
	<path id="input-add-focused" class="focused" d="M10,0c0.55228,0 1,0.44772 1,1l0,8h8c0.55228,0 1,0.44772 1,1c0,0.55228 -0.44772,1 -1,1l-8,0v8c0,0.55228 -0.44772,1 -1,1c-0.55228,0 -1,-0.44772 -1,-1l0,-8h-8c-0.55228,0 -1,-0.44772 -1,-1c0,-0.55228 0.44772,-1 1,-1l8,0v-8c0,-0.55228 0.44772,-1 1,-1z"/>
	
	<path id="input-remove" d="M0,10c0,-0.55228 0.44772,-1 1,-1h18c0.55228,0 1,0.44772 1,1c0,0.55228 -0.44772,1 -1,1h-18c-0.55228,0 -1,-0.44772 -1,-1z"/>
	<path id="input-remove-filled" class="filled" d="M0,10c0,-0.55228 0.44772,-1 1,-1h18c0.55228,0 1,0.44772 1,1c0,0.55228 -0.44772,1 -1,1h-18c-0.55228,0 -1,-0.44772 -1,-1z"/>
	<path id="input-remove-focused" class="focused" d="M0,10c0,-0.55228 0.44772,-1 1,-1h18c0.55228,0 1,0.44772 1,1c0,0.55228 -0.44772,1 -1,1h-18c-0.55228,0 -1,-0.44772 -1,-1z"/>
	
	<path id="input-clear" d="M0.29289,0.29289c0.39052,-0.39052 1.02369,-0.39052 1.41421,0l8.29289,8.29289l8.29289,-8.29289c0.39052,-0.39052 1.02369,-0.39052 1.41421,0c0.39052,0.39052 0.39052,1.02369 0,1.41421l-8.29289,8.29289l8.29289,8.29289c0.39052,0.39052 0.39052,1.02369 0,1.41421c-0.39052,0.39052 -1.02369,0.39052 -1.41421,0l-8.29289,-8.29289l-8.29289,8.29289c-0.39052,0.39052 -1.02369,0.39052 -1.41421,0c-0.39052,-0.39052 -0.39052,-1.02369 0,-1.41421l8.29289,-8.29289l-8.29289,-8.29289c-0.39052,-0.39052 -0.39052,-1.02369 0,-1.41421z"/>
	<path id="input-clear-filled" class="filled" d="M0.29289,0.29289c0.39052,-0.39052 1.02369,-0.39052 1.41421,0l8.29289,8.29289l8.29289,-8.29289c0.39052,-0.39052 1.02369,-0.39052 1.41421,0c0.39052,0.39052 0.39052,1.02369 0,1.41421l-8.29289,8.29289l8.29289,8.29289c0.39052,0.39052 0.39052,1.02369 0,1.41421c-0.39052,0.39052 -1.02369,0.39052 -1.41421,0l-8.29289,-8.29289l-8.29289,8.29289c-0.39052,0.39052 -1.02369,0.39052 -1.41421,0c-0.39052,-0.39052 -0.39052,-1.02369 0,-1.41421l8.29289,-8.29289l-8.29289,-8.29289c-0.39052,-0.39052 -0.39052,-1.02369 0,-1.41421z"/>
	<path id="input-clear-focused" class="focused" d="M0.29289,0.29289c0.39052,-0.39052 1.02369,-0.39052 1.41421,0l8.29289,8.29289l8.29289,-8.29289c0.39052,-0.39052 1.02369,-0.39052 1.41421,0c0.39052,0.39052 0.39052,1.02369 0,1.41421l-8.29289,8.29289l8.29289,8.29289c0.39052,0.39052 0.39052,1.02369 0,1.41421c-0.39052,0.39052 -1.02369,0.39052 -1.41421,0l-8.29289,-8.29289l-8.29289,8.29289c-0.39052,0.39052 -1.02369,0.39052 -1.41421,0c-0.39052,-0.39052 -0.39052,-1.02369 0,-1.41421l8.29289,-8.29289l-8.29289,-8.29289c-0.39052,-0.39052 -0.39052,-1.02369 0,-1.41421z"/>
	
	<path id="input-info" d="M8.5,1c0,-0.55228 0.44772,-1 1,-1h1c0.55228,0 1,0.44772 1,1v1c0,0.55228 -0.44772,1 -1,1h-1c-0.55228,0 -1,-0.44772 -1,-1v-1c0,-0.55228 0.44772,-1 1,-1c0.55228,0 1,0.44772 1,1h-1v1c-0.55228,0 -1,-0.44772 -1,-1zM10.5,5c0.55228,0 1,0.44772 1,1v13c0,0.55228 -0.44772,1 -1,1h-1c-0.55228,0 -1,-0.44772 -1,-1c0,0 0,-13 0,-13c0,-0.55228 0.44772,-1 1,-1z"/>
	<path id="input-info-filled" class="filled" d="M8.5,1c0,-0.55228 0.44772,-1 1,-1h1c0.55228,0 1,0.44772 1,1v1c0,0.55228 -0.44772,1 -1,1h-1c-0.55228,0 -1,-0.44772 -1,-1v-1c0,-0.55228 0.44772,-1 1,-1c0.55228,0 1,0.44772 1,1h-1v1c-0.55228,0 -1,-0.44772 -1,-1zM10.5,5c0.55228,0 1,0.44772 1,1v13c0,0.55228 -0.44772,1 -1,1h-1c-0.55228,0 -1,-0.44772 -1,-1c0,0 0,-13 0,-13c0,-0.55228 0.44772,-1 1,-1z"/>
	<path id="input-info-focused" class="focused" d="M8.5,1c0,-0.55228 0.44772,-1 1,-1h1c0.55228,0 1,0.44772 1,1v1c0,0.55228 -0.44772,1 -1,1h-1c-0.55228,0 -1,-0.44772 -1,-1v-1c0,-0.55228 0.44772,-1 1,-1c0.55228,0 1,0.44772 1,1h-1v1c-0.55228,0 -1,-0.44772 -1,-1zM10.5,5c0.55228,0 1,0.44772 1,1v13c0,0.55228 -0.44772,1 -1,1h-1c-0.55228,0 -1,-0.44772 -1,-1c0,0 0,-13 0,-13c0,-0.55228 0.44772,-1 1,-1z"/>
</svg>