<svg xmlns="http://www.w3.org/2000/svg" viewBox="0 0 220 220"><path d="M215.06 175.739C213.947 175.075 213.02 174.14 212.365 173.021C211.751 171.797 211.396 171.014 211.396 171.014C211.992 170.288 212.238 169.338 212.07 168.414C211.959 167.669 211.76 166.941 211.479 166.242C210.999 164.424 210.138 162.729 208.952 161.269C208.717 161.039 208.535 160.76 208.419 160.451C208.312 160.177 208.077 159.974 207.791 159.905C207.175 159.547 206.473 159.366 205.76 159.383C205.251 160.022 204.707 160.639 204.707 160.639C204.707 160.639 203.915 160.544 203.433 160.474C202.943 160.344 202.42 160.494 202.073 160.865L201.255 161.385C201.255 161.385 201.112 161.285 200.828 161.085C198.703 159.44 196.694 157.651 194.814 155.73C190.455 151.463 186.687 146.852 186.687 146.852C185.696 145.827 184.54 143.791 182.379 141.932C180.242 140.132 177.846 138.663 175.272 137.573C174.512 137.239 174.572 137.005 165.889 135.641C164.328 135.206 162.923 134.336 161.838 133.131C160.091 131.296 154.938 127.462 151.992 124.657C151.992 124.657 148.184 121.41 145.246 118.818C139.808 114.192 137.11 112.318 137.11 112.318C135.738 110.802 134.82 108.931 134.46 106.918C133.892 104.816 132.893 102.856 131.526 101.161C129.8 99.3681 127.788 97.8747 125.571 96.7421C124.607 96.2544 123.716 95.6337 122.924 94.898C123.002 94.3601 123.027 93.8159 123 93.273C122.884 92.079 122.69 89.6981 122.566 89.437C121.611 88.805 121.266 88.591 121.266 88.591L121.254 87.2361C121.254 87.2361 121.681 86.885 122.188 86.481C122.615 86.2228 122.802 85.7003 122.635 85.23C122.635 84.248 122.681 83.105 122.681 83.105C122.669 82.4642 122.399 81.8552 121.932 81.4161C121.102 80.2281 117.985 75.84 116.642 73.984C116.642 73.984 115.942 73.0331 115.682 72.719C115.393 72.336 114.959 72.0889 114.482 72.036C113.647 71.8111 113.096 71.675 112.727 71.5731C112.346 71.4862 111.946 71.5324 111.594 71.704C111.23 71.91 110.799 71.9652 110.394 71.858C109.826 71.7241 108.494 71.34 108.494 71.34C108.181 70.9341 107.45 69.923 107.121 69.4621C106.938 69.1988 106.695 68.9835 106.411 68.8341C105.843 68.467 104.698 67.7561 104.698 67.7561L100.898 68.83C100.755 68.8745 100.609 68.9079 100.461 68.9301C100.217 68.9501 100.094 68.965 100.094 68.965L99.6004 66.3651L101.681 64.8C102.452 64.2363 103.19 63.63 103.893 62.9841L105.106 61.8241C103.756 61.8876 102.402 61.8206 101.064 61.6241C100.941 61.5924 100.824 61.5389 100.719 61.466L101.168 60.9821C105.848 56.403 106.268 53.661 106.392 52.8171C105.391 53.7145 104.157 54.3101 102.831 54.535C101.702 54.7271 100.763 54.535 100.401 54.972C101.797 53.5037 102.802 51.7086 103.324 49.751C103.707 47.8388 103.588 45.8602 102.981 44.007C101.952 46.1788 100.136 47.8784 97.9004 48.7621C96.6576 49.2446 95.3755 49.619 94.0684 49.8811C92.967 50.1422 91.8821 50.4684 90.8194 50.8581C89.7389 51.2092 88.7219 51.7318 87.8074 52.4061C87.2992 52.837 86.8404 53.323 86.4394 53.855C86.1192 54.2769 85.8227 54.7162 85.5514 55.1711C85.2514 55.562 85.0354 55.878 84.9514 56.0131C85.594 54.0252 85.8982 51.9436 85.8514 49.855C85.6714 50.9701 83.0304 53.4421 81.5004 54.7671C78.4124 57.3871 78.8314 60.2491 78.8314 60.2491C78.5461 60.3238 78.2723 60.4368 78.0174 60.585C76.8294 61.4851 76.2424 61.96 74.9004 61.6161C74.4627 61.4655 74.0391 61.2767 73.6344 61.0521C73.4633 60.9771 73.2981 60.8892 73.1404 60.7891C73.8701 62.0258 74.9146 63.0472 76.1674 63.7491C76.4413 63.8867 76.6783 64.0879 76.8584 64.3361C76.6584 64.7691 75.8944 66.341 75.7934 66.5971C75.3169 67.6553 75.4193 68.8843 76.0644 69.8491C76.5064 70.562 77.5174 72.3081 77.5174 72.3081C77.5174 72.3081 77.7724 72.5741 77.9774 72.7661C77.8034 72.012 77.7198 71.2399 77.7284 70.466C77.8015 69.4739 78.4172 68.6034 79.3284 68.204C79.3284 68.429 79.2634 68.804 79.2404 69.316C79.2059 69.8381 79.2876 70.3613 79.4794 70.8481C79.6046 71.1404 79.7486 71.4243 79.9104 71.6981C80.2595 72.4062 80.1696 73.2521 79.6794 73.871C79.4699 74.1856 79.2216 74.4725 78.9404 74.7251C78.6868 74.8853 78.495 75.1268 78.3964 75.41C78.632 75.5995 78.8933 75.7547 79.1724 75.871C79.3364 75.94 80.1064 76.2351 80.3274 76.3181C80.8936 76.4003 81.3638 76.7975 81.5394 77.342C81.5018 77.5916 81.3553 77.8114 81.1394 77.9421C80.6894 78.162 80.2674 78.382 79.4734 78.7561C79.1777 78.9354 78.8711 79.0961 78.5554 79.2371C78.0594 79.4037 77.5503 79.5282 77.0334 79.6091C74.5962 80.1013 72.1238 80.3986 69.6394 80.4981C68.7816 80.578 67.92 80.3923 67.1714 79.966C67.1714 79.966 63.4714 77.8801 60.1504 78.4281C58.0539 78.6832 55.9906 79.1608 53.9954 79.8531C52.5933 80.3174 51.1232 80.5429 49.6464 80.5201C48.966 80.5727 48.2855 80.4194 47.6934 80.0801C47.0558 79.8134 46.3529 79.7437 45.6754 79.8801C44.9847 79.8728 44.2942 79.9105 43.6084 79.993C43.3084 80.4451 43.1554 80.6381 43.1554 80.6381C42.9085 80.5351 42.6783 80.3959 42.4724 80.2251C41.6003 79.6726 40.5668 79.4319 39.5404 79.5421C39.1105 79.5817 38.677 79.5547 38.2554 79.4621C38.4096 78.939 38.5187 78.4037 38.5814 77.8621C38.6479 77.5509 38.5712 77.2264 38.3724 76.9781C38.0584 76.428 37.5234 75.578 37.5234 75.578C37.4434 75.3851 37.2634 75.252 37.0554 75.232C36.6119 75.1068 36.2048 74.877 35.8684 74.562C35.2908 74.0102 34.517 73.7114 33.7184 73.732C33.3583 73.8134 32.9809 73.7225 32.6974 73.4861C32.0933 73.1839 31.3723 73.2365 30.8184 73.623C30.043 73.9712 29.1929 74.12 28.3454 74.0561C26.7364 74.0991 12.3724 74.4621 12.3724 74.4621C12.0739 74.4496 11.7942 74.3134 11.6004 74.0861C11.3085 73.7862 10.8416 73.7437 10.5004 73.9861C10.4754 74.5861 10.4004 76.065 10.4004 76.065L8.73239 76.0821C8.56136 75.7643 8.26486 75.5328 7.91506 75.444C7.56526 75.3552 7.19427 75.4173 6.89239 75.6151C6.82139 76.133 6.76839 76.3511 6.76839 76.3511L6.63239 76.6001C6.32976 76.6175 6.02997 76.6682 5.73839 76.7511C5.70953 77.5587 5.73827 78.3675 5.82439 79.1711C6.58639 79.3231 6.72439 79.3481 6.72439 79.3481L6.90039 80.9001C7.31229 81.4668 7.97818 81.7926 8.67839 81.7701C9.30639 81.8101 10.0294 81.619 10.5214 82.4221C11.3904 83.8037 12.38 85.1057 13.4784 86.313C14.1524 86.941 15.0404 88.149 20.4904 89.1931C22.3571 89.5248 24.2476 89.7044 26.1434 89.73C26.4364 90.008 28.2694 92.1661 28.2694 92.1661C28.6135 92.6772 29.1816 92.9925 29.7974 93.0141C32.1199 93.5736 34.4706 94.0093 36.8394 94.3191C37.4472 94.5119 38.1117 94.356 38.5704 93.913C39.1228 93.5648 39.523 93.0203 39.6904 92.3891L39.7844 91.6991L40.0674 91.493C41.2851 90.7312 42.3882 89.7998 43.3434 88.7271C43.424 88.9714 43.5244 89.2089 43.6434 89.437C43.7334 89.579 43.8144 89.994 45.0294 90.0041C47.0506 89.9982 49.046 90.4584 50.8604 91.3491C51.7522 91.7801 52.5673 92.3544 53.2734 93.049C54.7618 94.5066 56.7252 95.3795 58.8044 95.508C61.6954 95.761 64.5834 95.955 65.7554 96.0961C66.7504 96.2675 67.7739 96.1437 68.6994 95.7401C69.4746 95.5602 70.0408 94.8941 70.0934 94.1001C70.1254 93.6841 70.0934 92.94 70.1004 92.8C70.1764 92.426 70.2004 92.2521 70.2004 92.2521C70.4699 92.1797 70.7553 92.1937 71.0164 92.2921C71.6504 92.534 78.1664 94.8471 78.1664 94.8471C78.1664 94.8471 78.8344 94.747 78.5924 93.718C78.4424 92.834 78.3164 91.9621 78.3164 91.9621C78.275 91.8076 78.3051 91.6426 78.3985 91.5128C78.492 91.3829 78.6387 91.3019 78.7984 91.2921C79.6173 91.3052 80.4312 91.4228 81.2204 91.6421C82.6111 91.8649 84.028 91.8703 85.4204 91.6581C85.8607 91.5485 86.2947 91.415 86.7204 91.258C87.6814 90.951 87.8114 90.7821 88.1064 90.9701C88.4132 91.7624 88.5429 92.6123 88.4864 93.4601C88.4987 94.1153 88.7568 94.7421 89.2094 95.216C89.8674 95.927 93.6354 99.9161 93.6354 99.9161L95.0414 101.446C95.5209 101.991 96.2012 102.318 96.9264 102.352C97.512 102.432 98.0907 102.557 98.6574 102.725C99.4288 102.907 100.24 102.813 100.949 102.461C101.616 102.105 102.404 102.051 103.112 102.314C104.339 102.614 108.944 103.603 109.572 103.737L109.923 104.521L110.051 104.879C110.051 104.879 110.436 106.012 110.637 106.413C110.865 106.884 112.305 109.563 112.305 109.563C112.305 109.563 111.136 110.174 108.453 111.302C98.3386 115.804 89.4202 122.614 82.4144 131.187L82.2484 131.387L82.2004 131.404C82.2004 131.404 79.1004 135.073 78.9424 137.822C79.0324 138.593 79.3562 139.318 79.8704 139.899C80.6794 140.969 81.3954 142.063 82.2874 142.422C82.8134 142.67 82.8394 142.9 86.0094 142.988C89.1794 143.076 90.0004 143.118 90.0004 143.118C91.1777 143.122 92.3502 142.966 93.4854 142.654C95.5124 142.112 96.6264 141.828 97.1044 141.71C97.7424 141.522 98.5374 141.31 100.539 140.583C101.972 140.046 110.748 136.813 118.9 137.755L119.269 138.301C119.557 138.667 119.995 138.883 120.46 138.886C123.001 139.619 125.455 140.621 127.782 141.876C128.577 142.376 129.296 142.988 129.918 143.691C130.539 144.441 131.483 145.349 132.931 147.101C133.539 147.838 134.109 148.606 134.638 149.401C135.117 150.095 135.64 150.758 136.204 151.384C136.495 151.692 136.681 152.084 136.737 152.503C136.812 153.096 137.091 153.644 137.526 154.053C138.101 154.621 138.563 155.281 139.308 154.405C139.464 154.037 139.535 154.219 139.538 151.952C139.594 150.352 139.538 149.318 139.857 148.997C140.241 148.39 140.359 147.652 140.185 146.955C140.205 146.246 139.781 145.601 139.122 145.337C139.331 144.418 139.185 143.453 138.713 142.637C138.473 142.344 138.127 142.157 137.75 142.118C137.478 141.128 136.775 140.313 135.835 139.898C135.018 139.383 134.503 139.208 133.314 136.918C133.314 136.918 132.791 135.739 132.55 134.955C132.613 134.882 133.293 134.273 133.26 131.837C133.971 132.266 134.705 132.678 135.447 133.055C135.447 133.055 139.332 135.025 140.247 135.493C144.074 137.448 148.112 138.96 152.281 140C152.281 140 154.049 140.363 154.322 140.433C154.773 140.482 155.195 140.678 155.522 140.991C156.526 141.886 157.584 142.718 158.689 143.484C160.082 144.283 161.606 144.83 163.189 145.098C164.593 145.226 165.962 145.608 167.229 146.226C167.229 146.226 173.8 149.633 176.235 150.726C179.559 152.43 182.775 154.335 185.865 156.432C185.865 156.432 188.44 158.024 189.294 158.582C189.561 158.769 190.224 159.316 191.536 160.517C192.919 161.717 195.388 163.971 195.388 163.971L195.836 164.516H194.61L194.385 166.216C194.385 166.216 197.09 168.09 199.076 169.563C200.834 170.94 202.467 172.469 203.956 174.132C204.728 174.867 206.625 176.667 207.818 177.763C207.818 177.763 208.96 178.876 208.645 179.314C207.992 180.226 205.457 181.153 205.445 182.348C205.345 183.319 209.589 183.263 210.558 183.18C211.458 183.084 212.341 182.872 213.185 182.549L213.563 182.372C214.024 182.158 214.401 181.8 214.639 181.352C215.17 179.944 215.535 178.478 215.725 176.985C215.67 176.501 215.428 176.057 215.051 175.747L215.06 175.739ZM40.3134 62.1301L50.1754 60.2721C60.4544 58.2421 60.4334 59.508 60.4334 53.43V42.2821C60.4318 41.2131 61.1035 40.259 62.1104 39.9001L112.725 21.9501C113.267 21.7574 113.859 21.7574 114.4 21.9501L165.014 39.9001C166.022 40.2587 166.694 41.2129 166.692 42.2821V112.147C166.692 117.016 167.735 116.804 172.953 120.581L186.812 130.624V27.9871C186.814 26.9179 186.142 25.9637 185.134 25.6051L114.4 0.518051C113.859 0.32634 113.267 0.32634 112.725 0.518051L41.9904 25.6061C40.9837 25.9653 40.3121 26.9192 40.3134 27.9881V62.1301ZM173.8 169.183C163.453 162.594 164.678 159.683 153.84 167.752L114.969 194.352C114.116 194.937 112.991 194.937 112.137 194.352L61.5334 159.756C60.8445 159.284 60.4329 158.503 60.4334 157.668V117.205C60.4334 111.128 61.2134 112.005 50.1764 109.628L40.3144 107.77V168.357C40.3141 169.192 40.7257 169.974 41.4144 170.446L112.154 218.803C113.008 219.388 114.133 219.388 114.986 218.803L180.428 173.982L173.8 169.183Z" fill="#2E89DD"/></svg>