<svg xmlns="http://www.w3.org/2000/svg" viewBox="0 0 1024 1024" id="light"><style>.background{fill:#222}.text{fill:#eee}.league{fill:#f79e18}.legendary{fill:#ff9c00}@media(prefers-color-scheme:light){.background{fill:#fff}.text{fill:#111}}:target>.background{fill:#fff}:target>.text{fill:#111}</style><path class="background" d="m0 128c0-70.7 57.3-128 128-128h768c70.7 0 128 57.3 128 128v768c0 70.7-57.3 128-128 128h-768c-70.7 0-128-57.3-128-128z"/><path class="text" d="m182.3 928h-34.6q-24.4 0-37.6-13-13.3-12.9-13.3-37.3v-97.9q0-24.4 13.3-37.4 13.2-12.9 37.6-12.9h34.6q24.4 0 37.7 12.9 13.3 13 13.3 37.4v97.9q0 24.4-13.3 37.3-13.3 13-37.7 13zm-28.4-34h21.9q9.9 0 13.9-4 4.3-4.3 4.3-14.2v-94.1q0-9.9-4.3-13.9-4-4.4-13.9-4.4h-21.9q-9.9 0-13.9 4.4-4 4-4 13.9v94.1q0 9.9 4 14.2 4 4 13.9 4zm184.9 34h-43.2q-6.8 0-7.7-6.5l-33-185.5q-1-6.5 6.5-6.5h32.1q7.1 0 7.4 6.5l17.9 152.2h2.1l29.7-153.2q0.9-5.5 6.5-5.5h34.5q5.9 0 6.8 5.2l30.3 153.5h2.5l17.6-151.9q0.3-6.8 7.4-6.8h32.1q7.4 0 6.5 6.8l-33.4 185.2q-0.9 6.5-7.1 6.5h-43.5q-6.5 0-7.4-6.5l-27.8-144.8h-1.2l-28.1 144.8q-1.3 6.5-7.5 6.5zm453-50.6v-6.2q0-6.5 6.5-6.5h26.2q6.5 0 6.5 6.5v2.5q0 11.7 4.6 16 4.7 4.3 17 4.3h14.5q12.1 0 16.7-4.6 4.9-4.6 4.9-17.3v-3.7q0-8.9-7.4-13.6-7.1-4.9-17.9-5.8-10.8-1-23.4-3.4-12.4-2.8-23.2-6.8-10.8-4.4-18.2-16.4-7.1-12.3-7.1-31.5v-10.8q0-24.1 13.6-37.4 13.5-13.2 37.6-13.2h30.9q24.4 0 38 13.2 13.6 13.3 13.6 37.4v5.9q0 6.5-6.5 6.5h-26.3q-6.4 0-6.4-6.5v-1.9q0-12-4.7-16.3-4.6-4.4-17-4.4h-12q-12.7 0-17.3 5-4.3 4.6-4.3 18.5v5.9q0 14.5 25.3 16.6 26.2 2.2 46.6 10.5 10.8 4.7 17.9 16.7 7.4 11.7 7.4 30.3v10.5q0 24-13.5 37.3-13.6 13.3-37.7 13.3h-33.7q-24 0-37.6-13.3-13.6-13.3-13.6-37.3z"/><path class="league" d="m627.5 928h-101.5q-6.5 0-6.5-6.5v-185.5q0-6.5 6.5-6.5h26.2q6.5 0 6.5 6.5v154.3q0 3.4 3.7 3.4h65.1q6.2 0 6.2 6.8v21q0 6.5-6.2 6.5z"/><path class="legendary" d="m766.2 928h-101.6q-6.5 0-6.5-6.5v-185.5q0-6.5 6.5-6.5h26.2q6.5 0 6.5 6.5v154.3q0 3.4 3.7 3.4h65.2q6.1 0 6.1 6.8v21q0 6.5-6.1 6.5z"/><path class="legendary" d="m878 243l-26.7 11.1q-8.7 3.6-11.9-4.3l-34.4-83q-2-4.7-6.3-2.9l-196.6 81.4q-8.2 3.5-11.7-4.8l-13.8-33.4q-3.4-8.3 4.8-11.7l236.3-97.9q8.3-3.4 11.7 4.9l53.6 129.3q3.3 7.9-5 11.3z"/><path class="league" d="m139.6 233.1l53.6-129.4q3.4-8.2 11.7-4.8l236.3 97.9q8.3 3.4 4.9 11.6l-13.9 33.5q-3.4 8.2-11.7 4.8l-196.6-81.4q-4.3-1.8-6.2 2.9l-34.4 83q-3.3 7.8-11.9 4.2l-26.8-11q-8.2-3.5-5-11.3z"/><path class="text" d="m320.3 549h-47.7q-33.6 0-51.9-17.9-18.3-17.8-18.3-51.5v-134.9q0-33.6 18.3-51.5 18.3-17.9 51.9-17.9h47.7q33.6 0 51.9 17.9 18.3 17.9 18.3 51.5v134.9q0 33.7-18.3 51.5-18.3 17.9-51.9 17.9zm-39.2-46.8h30.2q13.6 0 19.2-5.5 5.9-6 5.9-19.6v-129.8q0-13.6-5.9-19.2-5.6-5.9-19.2-5.9h-30.2q-13.6 0-19.2 5.9-5.5 5.6-5.5 19.2v129.8q0 13.6 5.5 19.6 5.6 5.5 19.2 5.5zm204 129.4h-34.7q-5.5 0-6.2-5.2l-26.6-149.1q-0.7-5.2 5.2-5.2h25.8q5.7 0 6 5.2l14.4 122.3h1.7l23.8-123.1q0.8-4.4 5.2-4.4h27.8q4.7 0 5.5 4.2l24.3 123.3h2l14.1-122.1q0.3-5.4 6-5.4h25.8q5.9 0 5.2 5.4l-26.8 148.9q-0.7 5.2-5.7 5.2h-35q-5.2 0-6-5.2l-22.3-116.4h-1l-22.6 116.4q-0.9 5.2-5.9 5.2zm149.9-152.4v-8.5q0-8.9 8.9-8.9h36.2q8.9 0 8.9 8.9v3.4q0 16.2 6.4 22.1 6.4 6 23.4 6h20q16.6 0 23-6.4 6.8-6.4 6.8-23.8v-5.1q0-12.4-10.2-18.8-9.8-6.8-24.7-8.1-14.9-1.2-32.3-4.6-17.1-3.9-32-9.4-14.9-6-25.1-22.6-9.8-17-9.8-43.4v-14.9q0-33.2 18.8-51.5 18.7-18.3 51.9-18.3h42.5q33.7 0 52.4 18.3 18.7 18.3 18.7 51.5v8.1q0 9-8.9 9h-36.2q-8.9 0-8.9-9v-2.5q0-16.6-6.4-22.6-6.4-5.9-23.4-5.9h-16.6q-17.5 0-23.9 6.8-5.9 6.4-5.9 25.5v8.1q0 20 34.9 23 36.2 3 64.3 14.4 14.8 6.4 24.6 23 10.3 16.2 10.3 41.7v14.5q0 33.2-18.8 51.5-18.7 18.3-51.9 18.3h-46.4q-33.2 0-51.9-18.3-18.7-18.3-18.7-51.5z"/></svg>