<svg xmlns="http://www.w3.org/2000/svg" viewBox="0 0 1024 736" id="light"><style>.text{fill:#eee}.league{fill:#ff9c00}.legendary{fill:#f79e18}@media(prefers-color-scheme:light){.text{fill:#111}}:target>.text{fill:#111}</style><path class="league" d="m1015.9 201.3l-36.8 15.2q-11.9 4.9-16.3-5.9l-47.3-114q-2.6-6.5-8.6-4l-270.1 111.9q-11.4 4.7-16.1-6.7l-19-45.9q-4.7-11.3 6.6-16l324.8-134.5q11.3-4.7 16 6.6l73.6 177.8q4.5 10.8-6.8 15.5z"/><path class="legendary" d="m1.3 187.6l73.6-177.7q4.7-11.4 16-6.7l324.8 134.5q11.3 4.7 6.6 16.1l-19 45.9q-4.7 11.4-16.1 6.7l-270.1-111.9q-6-2.5-8.6 4l-47.3 114q-4.4 10.8-16.3 5.9l-36.8-15.2q-11.3-4.7-6.8-15.6z"/><path class="text" d="m249.4 621.8h-65.5q-46.2 0-71.3-24.6-25.1-24.6-25.1-70.8v-185.4q0-46.2 25.1-70.7 25.1-24.6 71.3-24.6h65.5q46.2 0 71.4 24.6 25.1 24.5 25.1 70.7v185.4q0 46.2-25.1 70.8-25.2 24.6-71.4 24.6zm-53.8-64.4h41.6q18.7 0 26.3-7.6 8.2-8.2 8.2-26.9v-178.3q0-18.8-8.2-26.4-7.6-8.1-26.3-8.1h-41.6q-18.7 0-26.3 8.1-7.6 7.6-7.6 26.4v178.3q0 18.7 7.6 26.9 7.6 7.6 26.3 7.6zm280.4 177.9h-47.8q-7.5 0-8.5-7.2l-36.5-204.9q-1-7.1 7.2-7.1h35.4q7.9 0 8.2 7.1l19.8 168.1h2.4l32.7-169.1q1-6.1 7.2-6.1h38.2q6.4 0 7.5 5.8l33.4 169.4h2.7l19.4-167.7q0.4-7.5 8.2-7.5h35.5q8.2 0 7.1 7.5l-36.8 204.5q-1 7.2-7.8 7.2h-48.1q-7.2 0-8.2-7.2l-30.7-159.9h-1.3l-31.1 159.9q-1.3 7.2-8.1 7.2zm205.9-209.5v-11.6q0-12.3 12.3-12.3h49.7q12.3 0 12.3 12.3v4.6q0 22.3 8.7 30.4 8.8 8.2 32.2 8.2h27.5q22.8 0 31.6-8.7 9.3-8.8 9.3-32.8v-7q0-17-14-25.7-13.5-9.4-33.9-11.2-20.5-1.7-44.5-6.4-23.4-5.2-43.8-12.9-20.5-8.1-34.5-30.9-13.5-23.4-13.5-59.7v-20.5q0-45.6 25.7-70.7 25.8-25.2 71.4-25.2h58.5q46.2 0 71.9 25.2 25.7 25.1 25.7 70.7v11.1q0 12.3-12.2 12.3h-49.8q-12.2 0-12.2-12.3v-3.5q0-22.8-8.8-31-8.8-8.1-32.2-8.1h-22.8q-24 0-32.7 9.3-8.2 8.8-8.2 35.1v11.1q0 27.5 47.9 31.6 49.8 4.1 88.3 19.9 20.5 8.7 34 31.6 14 22.2 14 57.3v19.8q0 45.7-25.7 70.8-25.8 25.2-71.4 25.2h-63.7q-45.6 0-71.4-25.2-25.7-25.1-25.7-70.8z"/></svg>